<svg xmlns="http://www.w3.org/2000/svg" viewBox="0 0 800 520" role="img" aria-label="Resultado impecable">
<defs>
<linearGradient id="bg" x1="0" y1="0" x2="1" y2="1">
<stop offset="0" stop-color="#0A1628"/><stop offset="1" stop-color="#13315C"/></linearGradient>
<radialGradient id="glow" cx="50%" cy="38%" r="50%">
<stop offset="0" stop-color="#C9A84C" stop-opacity=".35"/><stop offset="1" stop-color="#C9A84C" stop-opacity="0"/></radialGradient>
</defs>
<rect width="800" height="520" fill="url(#bg)"/>
<rect width="800" height="520" fill="url(#glow)"/>
<g fill="#C9A84C" opacity=".18">
<circle cx="90" cy="80" r="5"/><circle cx="720" cy="120" r="7"/><circle cx="680" cy="430" r="5"/>
<circle cx="130" cy="420" r="6"/><circle cx="400" cy="60" r="4"/></g>
<circle cx="400" cy="210" r="118" fill="#C9A84C" opacity=".10"/>
<circle cx="400" cy="210" r="118" fill="none" stroke="#C9A84C" stroke-width="2" opacity=".5"/>
<g><path d="M400 118 L420 192 L496 212 L420 232 L400 306 L380 232 L304 212 L380 192 Z" fill="#C9A84C"/><path d="M300 150 l8 26 26 8 -26 8 -8 26 -8 -26 -26 -8 26 -8 z" fill="#FdF6E9" opacity=".7"/><path d="M510 250 l6 18 18 6 -18 6 -6 18 -6 -18 -18 -6 18 -6 z" fill="#FdF6E9" opacity=".6"/></g>
<text x="400" y="392" font-family="Georgia,serif" font-size="34" font-weight="700" text-anchor="middle" fill="#FdF6E9">Resultado impecable</text>
<text x="400" y="426" font-family="Arial,sans-serif" font-size="17" text-anchor="middle" fill="#C9A84C" opacity=".9">Espacios limpios y sin olores</text>
<text x="400" y="486" font-family="Georgia,serif" font-size="18" font-weight="700" text-anchor="middle" fill="#FdF6E9" opacity=".55">Nano Nex</text>
</svg>